<?xml version="1.0" encoding="UTF-8"?>
<svg width="350" height="215.32" cursor="pointer" style="height:215.32px;left:50%;position:absolute;top:50%;transform:translate(-50%, -50%) scale(0.607933);width:350px;z-index:0" viewBox="0 -5 350 215.32" xmlns="http://www.w3.org/2000/svg">
<defs>
<linearGradient id="a">
<stop stop-color="#006838" offset="0"/>
<stop stop-color="#96cf24" offset="1"/>
</linearGradient>
</defs>
<g transform="matrix(1.2056 0 0 1.2056 112.91 -11.028)" fill="url(#a)" featurekey="symbolFeature-0">
<path d="m43.448 30.869 0.487 0.292 0.154-0.406c-1e-3 0.094-4e-3 0.195-7e-3 0.302l-6e-3 0.225 0.171 0.147c0.119 0.103 0.238 0.213 0.34 0.323l0.141 0.153h1.682l0.14-0.146c1.214-1.269 3.33-2.028 5.657-2.028 1.754 0 3.392 0.426 4.617 1.199l0.728 0.46v-0.146c0.011 0.043 0.022 0.087 0.034 0.133l0.036 0.144 0.113 0.098c0.057 0.048 0.104 0.098 0.153 0.146l0.14 0.141h4.366c0.042 0 0.08 9e-3 0.115 0.015 0.047 9e-3 0.094 0.016 0.14 0.021l0.596 0.061-0.113-0.87c-0.024-0.178-0.046-0.334-0.06-0.469-0.656-4.753-1.354-5.694-1.732-6.206-1.845-2.668-5.5-4.078-10.568-4.078-4.855 0-8.453 1.304-10.408 3.77l-0.084 0.099c-0.376 0.427-1.159 1.316-1.832 4.922l-0.104 0.562h0.572c1.702-2e-3 3.312 0.402 4.532 1.136zm-2.453-5.995c0.045-0.051 0.084-0.096 0.116-0.138 1.767-2.23 5.109-3.409 9.664-3.409 4.742 0 8.127 1.268 9.789 3.671l0.06 0.082c0.243 0.328 0.888 1.198 1.51 5.694 6e-3 0.053 0.012 0.113 0.02 0.178h-3.694c-0.42-1.599-0.733-2.118-1.258-2.118l-0.133 0.015c-0.319 0.08-0.419 0.334-0.451 0.877-1.263-0.615-2.797-0.949-4.41-0.949-2.494 0-4.792 0.81-6.198 2.174h-0.874c-0.032-0.031-0.065-0.063-0.099-0.094 0.036-1.566-0.017-1.923-0.474-2.014l-0.112-0.01c-0.372 0-0.68 0.291-0.991 0.953-1.15-0.586-2.504-0.926-3.969-0.996 0.595-2.884 1.226-3.599 1.504-3.916z" xmlns="http://www.w3.org/2000/svg"/>
<path d="m42.457 50.22 2.718 42.187c0 1.575 1.111 2.593 2.828 2.593 2.212 0 2.212-1.927 2.212-2.741l0.505-25.744 0.601 25.724c0 0.961 0 2.749 2.134 2.749 1.647 0 2.555-0.917 2.554-2.549l3.086-42.003v-2.515h-16.697c0 3e-3 0.045 1.68 0.059 2.299zm15.692-1.347 1e-3 1.53-3.086 42.003c0 1.13-0.495 1.634-1.605 1.634-0.941 0-1.185-0.37-1.185-1.811l-0.744-31.859h-1.636l-0.626 31.88c0 1.38-0.295 1.8-1.263 1.8-1.194 0-1.879-0.599-1.88-1.675l-2.718-42.197c-8e-3 -0.321-0.03-1.06-0.037-1.305h14.779z" xmlns="http://www.w3.org/2000/svg"/>
<path d="m47.948 12.278c2.671 0 6.972-0.159 7.79-1.144 1.04-0.168 1.565-0.771 1.565-1.797-1e-3 -2.158-1.662-4.337-5.376-4.337h-3.266c-3.712 0-5.374 2.178-5.374 4.337 0 0.059 2e-3 0.116 6e-3 0.172-3.009 0.319-3.272 0.823-3.272 1.274 0 1.3 4.966 1.495 7.927 1.495zm-4.046-1.875 0.617-0.056-0.216-0.581c-0.046-0.124-0.067-0.265-0.067-0.429 0-2.057 1.736-3.387 4.424-3.387h3.266c2.688 0 4.425 1.329 4.425 3.387 0 0.554-0.152 0.829-1.017 0.888l-0.746 0.061 0.223 0.396c-0.683 0.267-2.987 0.647-6.865 0.647-3.402 0-5.594-0.292-6.541-0.545 0.459-0.124 1.247-0.269 2.497-0.381z" xmlns="http://www.w3.org/2000/svg"/>
<path d="m56.374 11.671c-0.038 0.012-0.071 0.027-0.109 0.045l-0.178 0.095c-0.66 0.559-1.894 0.729-2.713 0.841-2.362 0.324-6.021 0.409-9.099 0.176l-0.547-0.042 0.037 0.547c0.235 3.476 3.147 6.198 6.629 6.198 3.667 0 6.652-2.984 6.652-6.652 0-0.275-0.021-0.544-0.054-0.811l-0.067-0.573-0.551 0.176zm-5.982 6.91c-2.799 0-5.168-2.054-5.618-4.767 2.999 0.19 6.443 0.092 8.731-0.221 0.732-0.101 1.761-0.242 2.591-0.663-0.029 3.121-2.576 5.651-5.704 5.651z" xmlns="http://www.w3.org/2000/svg"/>
<path d="m84.886 36.684c-0.262 0-0.475 0.213-0.475 0.475v9.238l-18.177-0.037c9e-3 -0.032 8e-3 -0.068 0.015-0.101h17.213v-9.238c0-0.262-0.213-0.475-0.475-0.475s-0.475 0.213-0.475 0.475v1.585h-0.586c-8e-3 -0.043-0.019-0.081-0.027-0.123-0.085-0.497-0.192-1.116-0.76-1.406-0.324-0.166-0.337-0.316-0.367-0.617-0.025-0.267-0.06-0.631-0.393-0.905-0.709-0.585-0.867-0.917-1.005-1.21-0.098-0.205-0.207-0.438-0.458-0.678-0.32-0.303-0.659-0.458-0.986-0.609-0.315-0.144-0.613-0.28-0.882-0.553-0.298-0.305-0.828-0.247-1.396-0.094-0.263 0.071-0.535 0.144-0.759 0.144-0.216 0-0.324-0.063-0.412-0.24-0.188-0.38-0.505-0.59-0.893-0.59-0.507 0-1.033 0.362-1.59 0.746-0.44 0.303-0.937 0.646-1.267 0.673-0.484 0.04-0.956 0.416-1.328 1.056-0.387 0.666-0.673 1.668-0.383 2.296 0.245 0.529 0.12 0.894-0.039 1.358-0.079 0.229-0.157 0.479-0.191 0.751h-1.174c7e-3 -0.079 0.017-0.159 0.017-0.237 0-1.612-1.312-2.924-2.924-2.924-1.391 0-2.552 0.972-2.853 2.268-0.297-1.296-1.455-2.267-2.841-2.267-0.349 0-0.681 0.071-0.991 0.184 0.287-0.46 0.441-0.958 0.441-1.466 0-2.22-2.748-3.959-6.256-3.959-3.502 0-6.247 1.739-6.247 3.959 0 1.041 0.61 2.006 1.725 2.743l-0.08 1.7h-4.087l-0.08-1.699c1.106-0.725 1.734-1.713 1.734-2.744 0-2.22-2.748-3.959-6.256-3.959-3.502 0-6.247 1.739-6.247 3.959 0 1.041 0.61 2.006 1.725 2.743l-0.08 1.7h-4.087l-0.08-1.699c1.106-0.725 1.734-1.713 1.734-2.744 0-2.22-2.748-3.959-6.256-3.959-3.502 0-6.247 1.739-6.247 3.959 0 1.041 0.61 2.006 1.725 2.743l-0.08 1.7h-0.696v-1.585c0-0.262-0.213-0.475-0.475-0.475s-0.475 0.213-0.475 0.475v1.585h-3e-3v4.114h3e-3v3.538h15.118c-9e-3 0.034-0.016 0.068-0.023 0.101l-16.026 0.036v-9.238c0-0.262-0.213-0.475-0.475-0.475s-0.475 0.213-0.475 0.475v10.187l16.985-0.036c0.02 0 0.037-9e-3 0.056-0.011 0.358 1.064 1.647 1.835 3.239 1.835 1.586 0 2.871-0.765 3.234-1.824 0 0 19.214-0.02 19.275-0.049 0.606 0.536 1.561 0.883 2.666 0.883 1.102 0 2.054-0.345 2.66-0.878 0.06 0.028 19.746 0.081 19.746 0.081v-10.186c2e-3 -0.262-0.211-0.475-0.473-0.475zm-15.413 8.626c0.614-0.536 1.011-1.316 1.011-2.193 0-0.133-0.018-0.264-0.036-0.396h0.436c1.236 1.041 3.254 2.076 5.292 2.589h-6.703zm3.017-2.589h9.006c-0.101 0.499-0.294 0.9-0.581 1.198-0.49 0.515-1.275 0.776-2.332 0.776-1.99 1e-3 -4.415-0.919-6.093-1.974zm10.023 2.589h-2.038c0.44-0.177 0.823-0.415 1.127-0.734 0.449-0.466 0.727-1.095 0.849-1.855h0.063c-1e-3 0-1e-3 2.589-1e-3 2.589zm-12.629-9.21c-0.09-0.194-4e-3 -0.828 0.341-1.42 0.226-0.389 0.463-0.577 0.588-0.588 0.58-0.048 1.163-0.449 1.726-0.837 0.353-0.244 0.839-0.576 1.094-0.517 0.174 0.351 0.535 0.769 1.263 0.769 0.348 0 0.698-0.094 1.006-0.178 0.202-0.054 0.411-0.111 0.471-0.158 0.391 0.398 0.801 0.586 1.163 0.752 0.281 0.129 0.524 0.24 0.728 0.433 0.122 0.117 0.172 0.222 0.254 0.396 0.163 0.345 0.386 0.816 1.26 1.536 0.028 0.024 0.042 0.157 0.052 0.264 0.035 0.362 0.094 0.968 0.88 1.37 0.139 0.071 0.198 0.391 0.249 0.685h-11.212c0.028-0.137 0.079-0.281 0.134-0.442 0.182-0.53 0.408-1.19 3e-3 -2.065zm-5.172 0.295c1.088 0 1.975 0.886 1.975 1.975 0 0.079-5e-3 0.158-0.015 0.237h-3.93c-0.01-0.08-0.015-0.159-0.015-0.237 1e-3 -1.089 0.891-1.975 1.985-1.975zm-5.696 0c1.088 0 1.975 0.886 1.975 1.975 0 0.079-5e-3 0.158-0.015 0.237h-3.93c-0.01-0.08-0.015-0.159-0.015-0.237 0-1.089 0.891-1.975 1.985-1.975zm-12.105-2.231c0-1.631 2.427-3.01 5.298-3.01 2.877 0 5.307 1.379 5.307 3.01 0 0.771-0.536 1.508-1.511 2.077l-0.249 0.145 0.104 2.221h-7.302l0.103-2.219-0.246-0.145c-0.971-0.575-1.504-1.314-1.504-2.079zm-13.292 0c0-1.631 2.427-3.01 5.298-3.01 2.877 0 5.307 1.379 5.307 3.01 0 0.771-0.536 1.508-1.511 2.077l-0.249 0.145 0.104 2.221h-7.302l0.103-2.219-0.246-0.145c-0.97-0.575-1.504-1.314-1.504-2.079zm-13.291 0c0-1.631 2.427-3.01 5.298-3.01 2.877 0 5.307 1.379 5.307 3.01 0 0.771-0.536 1.508-1.511 2.077l-0.249 0.145 0.104 2.221h-7.302l0.103-2.219-0.246-0.145c-0.97-0.575-1.504-1.314-1.504-2.079zm0.379 11.146h-0.379v-2.589h0.499l-0.12 2.589zm0.982-0.703 0.089-1.885h7.696l0.089 1.885h-7.874zm12.309 0.703h-3.453l-0.121-2.589h3.694l-0.12 2.589zm0.165-3.541v3e-3h-3.783v-3e-3h-9.509v3e-3h-0.543v-2.215h62.184v2.212h-17.576l-1e-3 3e-3h-0.454l-1e-3 -3e-3h-5.24l-1e-3 3e-3h-2.275v-3e-3h-9.51v3e-3h-3.782v-3e-3h-9.509zm21.982 2.838h-7.873l0.089-1.885h7.696l0.088 1.885zm-8.736-1.886-0.121 2.589h-3.453l-0.121-2.589h3.695zm-12.428 1.886 0.089-1.885h2.213c-0.184 0.093-0.364 0.211-0.54 0.34-9e-3 8e-3 -0.02 0.014-0.029 0.021-0.543 0.403-1.036 0.952-1.425 1.525h-0.308zm2.798 3.577c-1.3 0-2.397-0.677-2.397-1.478 0-0.18 0.078-0.432 0.208-0.713 7e-3 -0.013 0.013-0.026 0.019-0.04 0.061-0.127 0.128-0.259 0.209-0.396h2e-3l0.14-0.222c0.081-0.128 0.166-0.252 0.253-0.37 0.044-0.059 0.088-0.116 0.134-0.174 0.027-0.033 0.052-0.066 0.079-0.099 0.184-0.224 0.384-0.435 0.59-0.621 0.039-0.034 0.078-0.072 0.117-0.103 0.032-0.027 0.065-0.05 0.096-0.076 0.081-0.063 0.16-0.122 0.24-0.175 9e-3 -6e-3 0.018-0.012 0.028-0.018 0.309-0.196 0.606-0.307 0.862-0.307 0.1 0 0.193 0.023 0.283 0.054 0.024 9e-3 0.047 0.016 0.07 0.027 0.076 0.033 0.148 0.076 0.217 0.126 0.04 0.03 0.078 0.066 0.117 0.101 0.034 0.031 0.067 0.063 0.1 0.097 0.043 0.047 0.085 0.095 0.126 0.147 9e-3 0.013 0.019 0.027 0.029 0.04 0.559 0.753 0.877 2.034 0.877 2.722-3e-3 0.802-1.101 1.478-2.399 1.478zm2.918-3.577c-6e-3 -0.016-0.014-0.029-0.02-0.046-0.069-0.178-0.147-0.355-0.234-0.526-0.022-0.043-0.045-0.083-0.066-0.124-0.086-0.159-0.179-0.314-0.282-0.457-3e-3 -5e-3 -7e-3 -8e-3 -0.01-0.012-0.103-0.141-0.216-0.268-0.336-0.385-0.014-0.014-0.028-0.028-0.043-0.042-0.118-0.111-0.24-0.212-0.374-0.294h3.433l0.089 1.885-2.157 1e-3zm0.409 1.754c-3e-3 -0.033-7e-3 -0.066-0.01-0.101h18.562c8e-3 0.033 5e-3 0.068 0.015 0.101h-18.567zm18.556-1.051h-2.535l-0.121-2.589h1.96c-0.018 0.131-0.036 0.262-0.036 0.396 0 0.733 0.288 1.423 0.775 1.956-0.017 0.081-0.031 0.16-0.043 0.237zm0.397-1.37c-0.117-0.254-0.179-0.535-0.179-0.823 0-0.133 0.014-0.265 0.041-0.396h0.91c-0.327 0.342-0.581 0.772-0.772 1.219zm2.895 3.254c-1.413 0-2.397-0.678-2.397-1.285 0-0.316 0.088-0.803 0.259-1.289 6e-3 -0.017 0.013-0.035 0.02-0.052 0.047-0.132 0.103-0.262 0.162-0.389 0.016-0.034 0.032-0.068 0.049-0.102 0.063-0.125 0.132-0.245 0.207-0.357 0.012-0.018 0.023-0.038 0.035-0.056 0.084-0.121 0.177-0.227 0.274-0.322 0.03-0.029 0.062-0.052 0.093-0.079 0.076-0.064 0.155-0.117 0.237-0.161 0.036-0.019 0.072-0.039 0.109-0.054 0.116-0.047 0.237-0.079 0.366-0.08 2e-3 0 4e-3 -1e-3 6e-3 -1e-3 0.01 0 0.023 5e-3 0.033 5e-3 0.128 3e-3 0.261 0.035 0.393 0.077 0.078 0.026 0.158 0.059 0.238 0.097 0.06 0.028 0.119 0.059 0.178 0.092 0.1 0.056 0.199 0.115 0.302 0.188 0.034 0.025 0.066 0.052 0.1 0.078 0.113 0.085 0.227 0.176 0.343 0.281 0.775 0.72 1.386 1.714 1.386 2.127 4e-3 0.605-0.981 1.282-2.393 1.282zm2.622-4.077c0-0.133 0.014-0.265 0.041-0.396h3.878c0.027 0.13 0.041 0.262 0.041 0.396 0 1.089-0.887 1.975-1.975 1.975-1.095 0-1.985-0.886-1.985-1.975z" xmlns="http://www.w3.org/2000/svg"/>
</g>
<g transform="matrix(2.9043 0 0 2.9043 -3.4851 94.149)" fill="#111" featurekey="nameFeature-0">
<path d="m1.2 40v-4.48l0.84-0.56v-17.92l-0.84-0.56v-4.48h14.56v5.88h-4.48l-0.56-0.84h-3.64v6.44h6.44v5.04h-6.44v6.44h3.64l0.56-0.84h4.48v5.88h-14.56zm18.472 0v-4.48l0.84-0.56 3.64-17.92-0.84-0.56v-4.48h10.64v4.48l-0.84 0.56 3.64 17.92 0.84 0.56v4.48h-4.96l-1.24-6.16h-5.52l-1.24 6.16h-4.96zm7.24-11.2h3.44l-1.72-8.56zm19.632 11.2v-4.48l0.84-0.56v-17.92h-0.84l-0.56 0.84h-4.48v-5.88h16.8v5.88h-4.48l-0.56-0.84h-0.84v17.92l0.84 0.56v4.48h-6.72zm25.984 0v-4.48l0.84-0.56v-17.92l-0.84-0.56v-4.48h12.52l3.72 3.72v8.24l-2.04 2.04 2.04 2.04v8.24l-3.72 3.72h-12.52zm5.88-5.04h4.56l0.76-0.76v-4.08l-1.6-1.6h-3.72v6.44zm0-11.48h3.72l1.6-1.6v-4.08l-0.76-0.76h-4.56v6.44zm15.072 16.52v-4.48l0.84-0.56v-17.92l-0.84-0.56v-4.48h6.72v4.48l-0.84 0.56v17.92l0.84 0.56v4.48h-6.72zm16.472 0v-4.48l0.84-0.56v-17.92h-0.84l-0.56 0.84h-4.48v-5.88h16.8v5.88h-4.48l-0.56-0.84h-0.84v17.92l0.84 0.56v4.48h-6.72z"/>
</g>
</svg>